<?xml version="1.0" standalone="no"?>
<!DOCTYPE svg PUBLIC "-//W3C//DTD SVG 20010904//EN"
 "http://www.w3.org/TR/2001/REC-SVG-20010904/DTD/svg10.dtd">
<svg version="1.0" xmlns="http://www.w3.org/2000/svg"
 width="128.000000pt" height="128.000000pt" viewBox="0 0 128.000000 128.000000"
 preserveAspectRatio="xMidYMid meet">
<metadata>
Created by potrace 1.11, written by Peter Selinger 2001-2013
</metadata>
<g transform="translate(0.000000,128.000000) scale(0.100000,-0.100000)"
fill="#000000" stroke="none">
<path d="M120 841 c0 -32 21 -74 118 -235 111 -186 118 -196 146 -194 21 2 34
13 50 40 105 181 131 223 138 226 4 2 8 8 8 13 0 5 15 32 32 61 19 30 34 69
35 90 l2 38 -48 0 c-47 0 -49 -1 -72 -44 -102 -190 -159 -270 -159 -226 0 5
-18 36 -40 69 -22 33 -40 62 -40 65 0 3 -19 34 -41 70 -41 65 -42 66 -85 66
l-44 0 0 -39z"/>
<path d="M787 873 c-2 -5 -3 -24 -2 -43 l2 -35 181 -3 182 -2 0 45 0 45 -179
0 c-99 0 -182 -3 -184 -7z"/>
<path d="M789 686 c-7 -5 -3 -78 4 -83 5 -3 75 -5 156 -5 224 0 201 -5 201 46
l0 43 -180 0 c-99 0 -180 -1 -181 -1z"/>
<path d="M609 550 c-62 -96 -79 -139 -56 -141 61 -6 90 -4 93 6 3 6 4 52 2
101 l-3 89 -36 -55z"/>
<path d="M120 502 c0 -54 4 -92 10 -93 6 -1 27 -2 48 -2 33 -1 37 2 35 24 -1
22 -60 130 -83 153 -7 7 -10 -21 -10 -82z"/>
<path d="M789 485 c-6 -43 -4 -75 5 -77 6 -2 88 -3 181 -3 l170 1 0 44 0 45
-177 0 c-114 0 -178 -3 -179 -10z"/>
</g>
</svg>
