<svg width="116" height="172" viewBox="0 0 116 172" fill="none" xmlns="http://www.w3.org/2000/svg">
  <path d="M103.552 95.4198L104.365 94.8364L103.552 95.4198ZM99.5653 171.085C99.6567 171.63 100.172 171.997 100.717 171.906L109.593 170.416C110.138 170.325 110.505 169.809 110.414 169.264C110.322 168.72 109.806 168.352 109.262 168.444L101.372 169.768L100.048 161.878C99.9563 161.334 99.4406 160.966 98.8959 161.058C98.3513 161.149 97.9839 161.665 98.0753 162.21L99.5653 171.085ZM18.1036 32.8974C20.6158 34.1535 35.4414 41.1089 52.8271 52.1798C70.2308 63.2622 90.1025 78.4092 102.74 96.0032L104.365 94.8364C91.5026 76.9303 71.3735 61.6188 53.9013 50.4928C36.4112 39.3553 21.4857 32.3524 18.998 31.1085L18.1036 32.8974ZM102.74 96.0032C115.255 113.427 114.539 131.959 110.65 146.219C108.705 153.35 105.971 159.39 103.722 163.648C102.598 165.776 101.597 167.456 100.879 168.6C100.52 169.173 100.232 169.611 100.035 169.905C99.9366 170.051 99.8608 170.162 99.8103 170.235C99.785 170.271 99.7661 170.298 99.7538 170.316C99.7476 170.325 99.7431 170.331 99.7403 170.335C99.739 170.337 99.738 170.338 99.7374 170.339C99.7372 170.339 99.7371 170.34 99.7369 170.34C99.737 170.34 99.7371 170.34 100.552 170.92C101.366 171.5 101.366 171.5 101.367 171.499C101.367 171.499 101.368 171.498 101.368 171.497C101.369 171.495 101.371 171.493 101.373 171.49C101.377 171.484 101.383 171.476 101.39 171.466C101.405 171.444 101.427 171.413 101.455 171.373C101.51 171.293 101.592 171.174 101.696 171.019C101.904 170.71 102.203 170.254 102.573 169.663C103.315 168.482 104.341 166.759 105.491 164.582C107.789 160.231 110.586 154.052 112.579 146.746C116.565 132.131 117.349 112.913 104.365 94.8364L102.74 96.0032ZM18.998 31.1085C14.0756 28.6473 7.30328 24.2718 3.44656 16.5557L1.65759 17.4499C5.79829 25.7341 13.026 30.3585 18.1036 32.8974L18.998 31.1085ZM3.44656 16.5557C1.73262 13.1267 3.37259 9.58077 5.82045 6.64296C7.01779 5.20595 8.34284 3.99979 9.37488 3.14975C9.88929 2.72606 10.327 2.39402 10.6342 2.16925C10.7876 2.05693 10.9082 1.97159 10.9892 1.91518C11.0297 1.88698 11.0602 1.86602 11.08 1.85256C11.0899 1.84583 11.0971 1.84097 11.1014 1.83802C11.1036 1.83654 11.1051 1.83554 11.1059 1.83502C11.1063 1.83476 11.1065 1.83462 11.1065 1.8346C11.1065 1.83459 11.1064 1.83467 11.1064 1.83466C11.1063 1.83477 11.1061 1.83491 10.5513 1.00289C9.99656 0.170883 9.99626 0.17108 9.99592 0.171309C9.99575 0.171425 9.99536 0.171684 9.99501 0.171918C9.99431 0.172386 9.99343 0.172977 9.99236 0.17369C9.99024 0.175115 9.98738 0.17703 9.98382 0.17943C9.9767 0.184228 9.96674 0.190966 9.95404 0.199616C9.92865 0.216913 9.89231 0.241856 9.84589 0.2742C9.75306 0.338879 9.6198 0.433222 9.45302 0.555274C9.11964 0.799248 8.65127 1.15469 8.10336 1.60598C7.01074 2.50592 5.58622 3.79973 4.28392 5.36269C1.73248 8.42482 -0.627179 12.8788 1.65759 17.4499L3.44656 16.5557Z" fill="#ff3ca5"/>
</svg>
